<?xml version="1.0" encoding="UTF-8"?>
<svg width="70px" height="45px" viewBox="0 0 70 45" version="1.1" xmlns="http://www.w3.org/2000/svg" xmlns:xlink="http://www.w3.org/1999/xlink">
    <!-- Generator: Sketch 59.1 (86144) - https://sketch.com -->
    <title>Fill 1</title>
    <desc>Created with Sketch.</desc>
    <g id="Home-Blocks-Copy" stroke="none" stroke-width="1" fill="none" fill-rule="evenodd">
        <g id="Home-5" transform="translate(-150.000000, -41.000000)" fill="#FFFFFF">
            <g id="navigation" transform="translate(150.000000, 40.000000)">
                <g id="Logo" transform="translate(0.000000, 1.000000)">
                    <path d="M47.2958091,0 L41.148105,6.09267937 L35.0001337,0 L32.2573365,2.71812969 L52.0337566,22.5 L41.148105,33.2877511 L37.8351504,30.0048565 L45.4081146,22.5 L22.7041909,0 L0,22.5 L22.7041909,45 L28.8521623,38.9073206 L34.9998663,45 L37.8148353,42.2100826 L17.9662434,22.5 L28.8524296,11.711984 L32.1648496,14.9948786 L24.5918854,22.5 L47.2958091,45 L70,22.5 L47.2958091,0 Z M43.9828544,36.0975358 L57.7040573,22.5 L43.983389,8.90219925 L47.2958091,5.61930467 L64.3296993,22.5 L47.2958091,39.3804304 L43.9828544,36.0975358 Z M5.67030072,22.5 L22.7041909,5.61930467 L26.0168783,8.90219925 L12.2959427,22.5 L26.0168783,36.0975358 L22.7041909,39.3804304 L5.67030072,22.5 Z M30.2624535,22.5 L34.9998663,17.8049283 L39.7378138,22.5 L34.9998663,27.1950717 L30.2624535,22.5 Z" id="Fill-1"></path>
                </g>
            </g>
        </g>
    </g>
</svg>